<svg enable-background="new 0 0 24 24" height="512" viewBox="0 0 24 24" width="512" xmlns="http://www.w3.org/2000/svg"><path d="m18.3 4.525v13.95c0 .225-.108.432-.297.558-.117.081-.243.117-.378.117-.081 0-.171-.018-.252-.045l-9.063-3.627-1.422-.567-.648-.261-.117-.045c-.252-.108-.423-.351-.423-.63v-4.95c0-.279.171-.522.423-.63l.117-.045 11.133-4.455c.207-.081.441-.054.63.072s.297.333.297.558z" fill="#eceff1"/><path d="m7.769 20.446c.015.153-.036.306-.139.423-.102.117-.255.182-.408.182h-2.187c-.27 0-.503-.197-.539-.467l-.902-6.584h1.822l.525.211 1.152.459z" fill="#607d8b"/><path d="m2.854 8.665c-1.004 0-1.822.818-1.822 1.823v2.227c0 .956.745 1.62 1.822 1.62h2.713v-5.67z" fill="#2196f3"/><path d="m18.25 20c-.094 0-.188-.018-.278-.054l-12.5-5c-.285-.114-.472-.389-.472-.696v-5.5c0-.307.187-.582.472-.696l12.5-5c.23-.093.492-.064.699.075.206.14.329.372.329.621v15.5c0 .249-.123.481-.329.621-.126.085-.274.129-.421.129zm-11.75-6.258 11 4.4v-13.285l-11 4.4z"/><path d="m5.75 15h-3.5c-1.325 0-2.25-.822-2.25-2v-2.75c0-1.24 1.01-2.25 2.25-2.25h3.5c.414 0 .75.336.75.75v5.5c0 .414-.336.75-.75.75zm-3.5-5.5c-.413 0-.75.337-.75.75v2.75c0 .413.408.5.75.5h2.75v-4z"/><path d="m7.75 22h-3c-.373 0-.689-.274-.742-.644l-1-7c-.059-.41.226-.79.636-.849.412-.069.791.226.849.636l.907 6.357h1.511l-.637-5.676c-.047-.412.25-.783.661-.829.405-.042.783.249.829.661l.73 6.51c.024.213-.044.425-.186.584-.141.159-.344.25-.558.25z"/><path d="m20.75 9.5c-.22 0-.438-.097-.586-.281-.259-.323-.206-.796.117-1.055l2.5-2c.323-.257.795-.205 1.055.117.259.323.206.796-.117 1.055l-2.5 2c-.139.11-.304.164-.469.164z"/><path d="m23.25 18c-.165 0-.33-.054-.469-.164l-2.5-2c-.323-.259-.376-.731-.117-1.055.261-.322.732-.374 1.055-.117l2.5 2c.323.259.376.731.117 1.055-.148.184-.366.281-.586.281z"/><path d="m23.25 12.75h-2.5c-.414 0-.75-.336-.75-.75s.336-.75.75-.75h2.5c.414 0 .75.336.75.75s-.336.75-.75.75z"/></svg>