<svg id="Capa_1" enable-background="new 0 0 511.958 511.958" height="512" viewBox="0 0 511.958 511.958" width="512" xmlns="http://www.w3.org/2000/svg"><g id="XMLID_1_"><path id="XMLID_1028_" d="m428.901 283.827c-7.308-56.542-30.098-121.183-62.406-170.43-15.257-23.256-48.369-26.525-67.667-6.495-12.822 13.308-27.395 21.674-42.849 21.674-15.455 0-30.028-8.366-42.849-21.674-19.298-20.03-52.41-16.761-67.667 6.495-32.308 49.247-55.098 113.888-62.406 170.43 98.853 85.973 246.99 85.973 345.844 0z" fill="#c68a65"/><path id="XMLID_1068_" d="m418.505 232.165c-95.09 74.517-229.963 74.517-325.053 0-4.712 17.524-8.236 34.947-10.396 51.662 98.854 85.973 246.991 85.973 345.845 0-2.16-16.715-5.684-34.138-10.396-51.662z" fill="#ffcd69"/><g id="XMLID_1250_"><path id="XMLID_1301_" d="m255.979 418.248c-43.282 0-85.488-8.223-125.445-24.441-41.376-16.794-78.5-41.454-110.343-73.297-13.616-13.616-13.616-35.692 0-49.308 13.617-13.617 35.692-13.617 49.308 0 102.825 102.825 270.134 102.825 372.959 0 13.617-13.617 35.692-13.617 49.309 0 13.616 13.616 13.616 35.692 0 49.308-31.843 31.842-68.968 56.503-110.343 73.297-39.958 16.218-82.163 24.441-125.445 24.441z" fill="#c68a65"/></g><g id="XMLID_274_"><path id="XMLID_281_" d="m498.838 264.131c-17.333-17.332-45.428-17.481-62.959-.468-9.896-54.65-32.094-111.657-61.023-155.752-8.99-13.703-23.534-22.438-39.904-23.966-16.267-1.517-32.056 4.32-43.326 16.018-11.899 12.35-23.893 18.612-35.648 18.612s-23.749-6.262-35.648-18.613c-11.27-11.697-27.055-17.531-43.326-16.018-16.37 1.528-30.914 10.263-39.904 23.965-28.928 44.095-51.127 101.101-61.023 155.752-17.531-17.013-45.625-16.865-62.959.468-17.493 17.493-17.493 45.956 0 63.451 32.793 32.793 71.032 58.192 113.653 75.491 41.159 16.705 84.629 25.175 129.206 25.175 44.576 0 88.047-8.47 129.206-25.175 42.621-17.299 80.86-42.698 113.654-75.492 17.494-17.492 17.494-45.955.001-63.448zm-345.014-145.249c5.634-8.587 14.761-14.063 25.04-15.023 10.176-.946 20.038 2.688 27.064 9.981 15.591 16.182 32.898 24.736 50.051 24.736 17.152 0 34.459-8.553 50.051-24.736 7.026-7.293 16.888-10.933 27.064-9.981 10.279.959 19.406 6.435 25.04 15.023 20.699 31.551 37.774 70.077 48.978 109.388-89.902 66.831-212.366 66.83-302.267 0 11.205-39.31 28.28-77.837 48.979-109.388zm330.872 194.557c-30.893 30.892-66.903 54.814-107.033 71.102-38.758 15.731-79.699 23.707-121.684 23.707s-82.926-7.976-121.684-23.707c-40.13-16.288-76.141-40.21-107.033-71.102-9.695-9.696-9.695-25.471 0-35.167 9.695-9.695 25.471-9.695 35.166 0 40.217 40.217 91.08 66.536 147.091 76.109 5.443.931 10.611-2.728 11.542-8.172s-2.728-10.612-8.172-11.542c-44.249-7.563-85.027-26.412-119.188-54.897 1.472-10.149 3.423-20.43 5.793-30.731 45.548 31.694 100.537 49.013 156.485 49.013s110.937-17.319 156.485-49.013c2.371 10.301 4.322 20.582 5.793 30.731-34.134 28.462-74.876 47.304-119.085 54.879-5.443.933-9.1 6.102-8.167 11.545s6.096 9.099 11.545 8.168c55.965-9.589 106.79-35.901 146.979-76.09 9.695-9.695 25.471-9.695 35.166 0 9.696 9.696 9.696 25.472.001 35.167z"/><path id="XMLID_283_" d="m256.039 338.369c-2.63 0-5.211 1.07-7.07 2.93-1.86 1.86-2.93 4.44-2.93 7.07s1.07 5.21 2.93 7.07 4.44 2.93 7.07 2.93 5.21-1.07 7.07-2.93c1.87-1.86 2.93-4.44 2.93-7.07s-1.06-5.21-2.93-7.07c-1.86-1.859-4.43-2.93-7.07-2.93z"/></g></g></svg>